<?xml version="1.0" encoding="utf-8"?>
<!-- Generator: Adobe Illustrator 16.0.0, SVG Export Plug-In . SVG Version: 6.00 Build 0)  -->
<!DOCTYPE svg PUBLIC "-//W3C//DTD SVG 1.1//EN" "http://www.w3.org/Graphics/SVG/1.1/DTD/svg11.dtd">
<svg version="1.1" xmlns="http://www.w3.org/2000/svg" xmlns:xlink="http://www.w3.org/1999/xlink" x="0px" y="0px" width="16px"
	 height="16px" viewBox="0 0 16 16" enable-background="new 0 0 16 16" xml:space="preserve">
<g id="Layer_1" display="none">
</g>
<g id="Layer_2">
	<rect x="6" width="4" height="16"/>
</g>
<g id="Layer_3" display="none">
	<rect x="0" y="6" display="inline" width="15.979" height="4"/>
</g>
<g id="Layer_5" display="none">
	<rect x="10" y="12" display="inline" width="5.979" height="4"/>
	<rect x="6" display="inline" width="4" height="16"/>
</g>
<g id="Layer_11" display="none">
	<rect x="6.021" display="inline" width="4" height="16"/>
	<rect x="10.021" display="inline" width="5.979" height="4"/>
</g>
<g id="Layer_12" display="none">
	<rect x="6.021" display="inline" width="4" height="16"/>
	<rect x="10.021" y="12" display="inline" width="5.979" height="4"/>
	<rect x="10.021" display="inline" width="5.979" height="4"/>
</g>
<g id="Layer_6" display="none">
	<rect x="6" y="2" display="inline" width="4" height="4"/>
	<rect x="6" y="10" display="inline" width="4" height="4"/>
</g>
<g id="Layer_7" display="none">
	<rect x="2" y="2" display="inline" width="12" height="4"/>
	<rect x="2" y="10" display="inline" width="12" height="4"/>
</g>
<g id="Layer_8" display="none">
	<polygon display="inline" points="6,6 8,8 6,10 6,14 10,14 15.979,8 10,2 6,2 	"/>
</g>
<g id="Layer_9" display="none">
	<polygon display="inline" points="4,8 2,10 2,14 6,14 8,12 10,14 14,14 14,10 12,8 14,6 14,2 10,2 8,4 6,2 2,2 2,6 	"/>
</g>
<g id="Layer_10" display="none">
	<polygon display="inline" points="2,10 6,14 10,14 14,10 14,6 10,2 6,2 2,6 	"/>
	<path display="inline" fill="#FFFFFF" d="M6,9V7V9z"/>
	<polyline display="inline" fill="#FFFFFF" points="6,7 7,6 9,6 10,7 10,9 9,10 7,10 6,9 	"/>
</g>
</svg>
